<svg id="SvgjsSvg1006" width="1070.0124969482422" height="268" xmlns="http://www.w3.org/2000/svg" version="1.1" xmlns:xlink="http://www.w3.org/1999/xlink" xmlns:svgjs="http://svgjs.com/svgjs"><defs id="SvgjsDefs1007"><marker id="SvgjsMarker1024" markerWidth="14" markerHeight="10" refX="10" refY="5" viewBox="0 0 14 10" orient="auto" markerUnits="userSpaceOnUse" stroke-dasharray="0,0"><path id="SvgjsPath1025" d="M0,0 L14,5 L0,10 L0,0" fill="#323232" stroke="#323232" stroke-width="1"></path></marker><marker id="SvgjsMarker1036" markerWidth="14" markerHeight="10" refX="10" refY="5" viewBox="0 0 14 10" orient="auto" markerUnits="userSpaceOnUse" stroke-dasharray="0,0"><path id="SvgjsPath1037" d="M0,0 L14,5 L0,10 L0,0" fill="#323232" stroke="#323232" stroke-width="1"></path></marker><marker id="SvgjsMarker1046" markerWidth="14" markerHeight="10" refX="10" refY="5" viewBox="0 0 14 10" orient="auto" markerUnits="userSpaceOnUse" stroke-dasharray="0,0"><path id="SvgjsPath1047" d="M0,0 L14,5 L0,10 L0,0" fill="#323232" stroke="#323232" stroke-width="1"></path></marker><marker id="SvgjsMarker1058" markerWidth="14" markerHeight="10" refX="10" refY="5" viewBox="0 0 14 10" orient="auto" markerUnits="userSpaceOnUse" stroke-dasharray="0,0"><path id="SvgjsPath1059" d="M0,0 L14,5 L0,10 L0,0" fill="#323232" stroke="#323232" stroke-width="1"></path></marker><marker id="SvgjsMarker1068" markerWidth="14" markerHeight="10" refX="10" refY="5" viewBox="0 0 14 10" orient="auto" markerUnits="userSpaceOnUse" stroke-dasharray="0,0"><path id="SvgjsPath1069" d="M0,0 L14,5 L0,10 L0,0" fill="#323232" stroke="#323232" stroke-width="1"></path></marker><marker id="SvgjsMarker1072" markerWidth="14" markerHeight="10" refX="10" refY="5" viewBox="0 0 14 10" orient="auto" markerUnits="userSpaceOnUse" stroke-dasharray="0,0"><path id="SvgjsPath1073" d="M0,0 L14,5 L0,10 L0,0" fill="#323232" stroke="#323232" stroke-width="1"></path></marker><marker id="SvgjsMarker1084" markerWidth="14" markerHeight="10" refX="10" refY="5" viewBox="0 0 14 10" orient="auto" markerUnits="userSpaceOnUse" stroke-dasharray="0,0"><path id="SvgjsPath1085" d="M0,0 L14,5 L0,10 L0,0" fill="#323232" stroke="#323232" stroke-width="1"></path></marker><marker id="SvgjsMarker1088" markerWidth="14" markerHeight="10" refX="10" refY="5" viewBox="0 0 14 10" orient="auto" markerUnits="userSpaceOnUse" stroke-dasharray="0,0"><path id="SvgjsPath1089" d="M0,0 L14,5 L0,10 L0,0" fill="#f44336" stroke="#f44336" stroke-width="1"></path></marker><marker id="SvgjsMarker1118" markerWidth="14" markerHeight="10" refX="10" refY="5" viewBox="0 0 14 10" orient="auto" markerUnits="userSpaceOnUse" stroke-dasharray="0,0"><path id="SvgjsPath1119" d="M0,0 L14,5 L0,10 L0,0" fill="#323232" stroke="#323232" stroke-width="1"></path></marker><marker id="SvgjsMarker1122" markerWidth="14" markerHeight="10" refX="10" refY="5" viewBox="0 0 14 10" orient="auto" markerUnits="userSpaceOnUse" stroke-dasharray="0,0"><path id="SvgjsPath1123" d="M0,0 L14,5 L0,10 L0,0" fill="#323232" stroke="#323232" stroke-width="1"></path></marker></defs><g id="SvgjsG1008" transform="translate(25.012496948242188,25)"><path id="SvgjsPath1009" d="M 0 4Q 0 0 4 0L 156 0Q 160 0 160 4L 160 67Q 160 71 156 71L 4 71Q 0 71 0 67Z" stroke="rgba(255,183,77,1)" stroke-width="2" fill-opacity="1" fill="#ffe0b2"></path><g id="SvgjsG1010"><text id="SvgjsText1011" font-family="微软雅黑" text-anchor="middle" font-size="16px" width="140px" fill="#323232" font-weight="400" align="middle" lineHeight="125%" anchor="middle" family="微软雅黑" size="16px" weight="400" font-style="" opacity="1" y="13.5" transform="rotate(0)"><tspan id="SvgjsTspan1012" dy="20" x="80"><tspan id="SvgjsTspan1013" style="text-decoration:;">JavaScript</tspan></tspan><tspan id="SvgjsTspan1014" dy="20" x="80"><tspan id="SvgjsTspan1015" style="text-decoration:;">源代码</tspan></tspan></text></g></g><g id="SvgjsG1016" transform="translate(225.0124969482422,36.625)"><path id="SvgjsPath1017" d="M 15.916666666666666 0L 104 0L 88.08333333333333 47.75L 0 47.75L 15.916666666666666 0Z" stroke="rgba(97,97,97,1)" stroke-width="2" fill-opacity="1" fill="#9e9e9e"></path><g id="SvgjsG1018"><text id="SvgjsText1019" font-family="微软雅黑" text-anchor="middle" font-size="16px" width="73px" fill="#f5f5f5" font-weight="400" align="middle" lineHeight="125%" anchor="middle" family="微软雅黑" size="16px" weight="400" font-style="" opacity="1" y="11.875" transform="rotate(0)"><tspan id="SvgjsTspan1020" dy="20" x="52.1"><tspan id="SvgjsTspan1021" style="text-decoration:;">Parse</tspan></tspan></text></g></g><g id="SvgjsG1022"><path id="SvgjsPath1023" d="M186.0124969482422 60.5L209.5109096466549 60.5L209.5109096466549 60.5L230.40932234506755 60.5" stroke="#323232" stroke-width="2" fill="none" marker-end="url(#SvgjsMarker1024)"></path></g><g id="SvgjsG1026" transform="translate(369.0124969482422,25)"><path id="SvgjsPath1027" d="M 0 4Q 0 0 4 0L 156 0Q 160 0 160 4L 160 67Q 160 71 156 71L 4 71Q 0 71 0 67Z" stroke="rgba(255,183,77,1)" stroke-width="2" fill-opacity="1" fill="#ffe0b2"></path><g id="SvgjsG1028"><text id="SvgjsText1029" font-family="微软雅黑" text-anchor="middle" font-size="16px" width="140px" fill="#323232" font-weight="400" align="middle" lineHeight="125%" anchor="middle" family="微软雅黑" size="16px" weight="400" font-style="" opacity="1" y="13.5" transform="rotate(0)"><tspan id="SvgjsTspan1030" dy="20" x="80"><tspan id="SvgjsTspan1031" style="text-decoration:;">AST</tspan></tspan><tspan id="SvgjsTspan1032" dy="20" x="80"><tspan id="SvgjsTspan1033" style="text-decoration:;">抽象语法树</tspan></tspan></text></g></g><g id="SvgjsG1034"><path id="SvgjsPath1035" d="M322.0541636149089 60.5L345.03333028157556 60.5L345.03333028157556 60.5L365.41249694824216 60.5" stroke="#323232" stroke-width="2" fill="none" marker-end="url(#SvgjsMarker1036)"></path></g><g id="SvgjsG1038" transform="translate(569.0124969482422,36.625)"><path id="SvgjsPath1039" d="M 15.916666666666666 0L 104 0L 88.08333333333333 47.75L 0 47.75L 15.916666666666666 0Z" stroke="rgba(97,97,97,1)" stroke-width="2" fill-opacity="1" fill="#9e9e9e"></path><g id="SvgjsG1040"><text id="SvgjsText1041" font-family="微软雅黑" text-anchor="middle" font-size="16px" width="73px" fill="#f5f5f5" font-weight="400" align="middle" lineHeight="125%" anchor="middle" family="微软雅黑" size="16px" weight="400" font-style="" opacity="1" y="11.875" transform="rotate(0)"><tspan id="SvgjsTspan1042" dy="20" x="52.1"><tspan id="SvgjsTspan1043" style="text-decoration:;"> Ignition</tspan></tspan></text></g></g><g id="SvgjsG1044"><path id="SvgjsPath1045" d="M530.0124969482422 60.5L552.9916636149089 60.5L552.9916636149089 60.5L573.3708302815755 60.5" stroke="#323232" stroke-width="2" fill="none" marker-end="url(#SvgjsMarker1046)"></path></g><g id="SvgjsG1048" transform="translate(713.0124969482422,25)"><path id="SvgjsPath1049" d="M 0 4Q 0 0 4 0L 156 0Q 160 0 160 4L 160 67Q 160 71 156 71L 4 71Q 0 71 0 67Z" stroke="rgba(255,183,77,1)" stroke-width="2" fill-opacity="1" fill="#ffe0b2"></path><g id="SvgjsG1050"><text id="SvgjsText1051" font-family="微软雅黑" text-anchor="middle" font-size="16px" width="140px" fill="#323232" font-weight="400" align="middle" lineHeight="125%" anchor="middle" family="微软雅黑" size="16px" weight="400" font-style="" opacity="1" y="13.5" transform="rotate(0)"><tspan id="SvgjsTspan1052" dy="20" x="80"><tspan id="SvgjsTspan1053" style="text-decoration:;">ByteCode</tspan></tspan><tspan id="SvgjsTspan1054" dy="20" x="80"><tspan id="SvgjsTspan1055" style="text-decoration:;">字节码</tspan></tspan></text></g></g><g id="SvgjsG1056"><path id="SvgjsPath1057" d="M666.0541636149088 60.5L689.0333302815754 60.5L689.0333302815754 60.5L709.4124969482422 60.5" stroke="#323232" stroke-width="2" fill="none" marker-end="url(#SvgjsMarker1058)"></path></g><g id="SvgjsG1060" transform="translate(569.0124969482422,184.625)"><path id="SvgjsPath1061" d="M 15.916666666666666 0L 104 0L 88.08333333333333 47.75L 0 47.75L 15.916666666666666 0Z" stroke="rgba(97,97,97,1)" stroke-width="2" fill-opacity="1" fill="#9e9e9e"></path><g id="SvgjsG1062"><text id="SvgjsText1063" font-family="微软雅黑" text-anchor="middle" font-size="16px" width="73px" fill="#f5f5f5" font-weight="400" align="middle" lineHeight="125%" anchor="middle" family="微软雅黑" size="16px" weight="400" font-style="" opacity="1" y="11.875" transform="rotate(0)"><tspan id="SvgjsTspan1064" dy="20" x="52.1"><tspan id="SvgjsTspan1065" style="text-decoration:;"> TurboFan</tspan></tspan></text></g></g><g id="SvgjsG1066"><path id="SvgjsPath1067" d="M621.0124969482422 85.375L621.0124969482422 134.5L621.0124969482422 134.5L621.0124969482422 181.02499999999998" stroke="#323232" stroke-width="2" fill="none" marker-end="url(#SvgjsMarker1068)"></path></g><g id="SvgjsG1070"><path id="SvgjsPath1071" d="M718.2745618910674 95.67487172958457L623.6690631540713 182.19546177349554" stroke="#323232" stroke-width="2" fill="none" marker-end="url(#SvgjsMarker1072)"></path></g><g id="SvgjsG1074" transform="translate(713.0124969482422,173)"><path id="SvgjsPath1075" d="M 0 4Q 0 0 4 0L 156 0Q 160 0 160 4L 160 67Q 160 71 156 71L 4 71Q 0 71 0 67Z" stroke="rgba(255,183,77,1)" stroke-width="2" fill-opacity="1" fill="#ffe0b2"></path><g id="SvgjsG1076"><text id="SvgjsText1077" font-family="微软雅黑" text-anchor="middle" font-size="16px" width="140px" fill="#323232" font-weight="400" align="middle" lineHeight="125%" anchor="middle" family="微软雅黑" size="16px" weight="400" font-style="" opacity="1" y="13.5" transform="rotate(0)"><tspan id="SvgjsTspan1078" dy="20" x="80"><tspan id="SvgjsTspan1079" style="text-decoration:;">MachineCode</tspan></tspan><tspan id="SvgjsTspan1080" dy="20" x="80"><tspan id="SvgjsTspan1081" style="text-decoration:;">优化的机器码</tspan></tspan></text></g></g><g id="SvgjsG1082"><path id="SvgjsPath1083" d="M666.0541636149088 208.5L709.4124969482422 208.5" stroke="#323232" stroke-width="2" fill="none" marker-end="url(#SvgjsMarker1084)"></path></g><g id="SvgjsG1086"><path id="SvgjsPath1087" d="M793.0124969482422 172L793.0124969482422 99.6" stroke="#f44336" stroke-width="2" fill="none" marker-end="url(#SvgjsMarker1088)"></path></g><g id="SvgjsG1090" transform="translate(805.0124969482422,114.5)"><path id="SvgjsPath1091" d="M 0 0L 120 0L 120 40L 0 40Z" stroke="none" fill="none"></path><g id="SvgjsG1092"><text id="SvgjsText1093" font-family="微软雅黑" text-anchor="middle" font-size="16px" width="120px" fill="#323232" font-weight="400" align="middle" lineHeight="125%" anchor="middle" family="微软雅黑" size="16px" weight="400" font-style="" opacity="1" y="8" transform="rotate(0)"><tspan id="SvgjsTspan1094" dy="20" x="60"><tspan id="SvgjsTspan1095" style="text-decoration:;">Deoptimization</tspan></tspan></text></g></g><g id="SvgjsG1096" transform="translate(516.0124969482422,114.5)"><path id="SvgjsPath1097" d="M 0 0L 120 0L 120 40L 0 40Z" stroke="none" fill="none"></path><g id="SvgjsG1098"><text id="SvgjsText1099" font-family="微软雅黑" text-anchor="start" font-size="16px" width="120px" fill="#323232" font-weight="400" align="middle" lineHeight="125%" anchor="start" family="微软雅黑" size="16px" weight="400" font-style="" opacity="1" y="-2" transform="rotate(0)"><tspan id="SvgjsTspan1100" dy="20" x="0"><tspan id="SvgjsTspan1101" style="text-decoration:;">收集信息，</tspan></tspan><tspan id="SvgjsTspan1102" dy="20" x="0"><tspan id="SvgjsTspan1103" style="text-decoration:;">比如类型信息</tspan></tspan></text></g></g><g id="SvgjsG1104" transform="translate(925.0124969482422,40.5)"><path id="SvgjsPath1105" d="M 0 0L 120 0L 120 40L 0 40Z" stroke="none" fill="none"></path><g id="SvgjsG1106"><text id="SvgjsText1107" font-family="微软雅黑" text-anchor="middle" font-size="16px" width="120px" fill="#323232" font-weight="400" align="middle" lineHeight="125%" anchor="middle" family="微软雅黑" size="16px" weight="400" font-style="" opacity="1" y="8" transform="rotate(0)"><tspan id="SvgjsTspan1108" dy="20" x="60"><tspan id="SvgjsTspan1109" style="text-decoration:;">运行结果</tspan></tspan></text></g></g><g id="SvgjsG1110" transform="translate(925.0124969482422,188.5)"><path id="SvgjsPath1111" d="M 0 0L 120 0L 120 40L 0 40Z" stroke="none" fill="none"></path><g id="SvgjsG1112"><text id="SvgjsText1113" font-family="微软雅黑" text-anchor="middle" font-size="16px" width="120px" fill="#323232" font-weight="400" align="middle" lineHeight="125%" anchor="middle" family="微软雅黑" size="16px" weight="400" font-style="" opacity="1" y="8" transform="rotate(0)"><tspan id="SvgjsTspan1114" dy="20" x="60"><tspan id="SvgjsTspan1115" style="text-decoration:;">运行结果</tspan></tspan></text></g></g><g id="SvgjsG1116"><path id="SvgjsPath1117" d="M874.0124969482422 60.5L937.0124969482422 60.5" stroke="#323232" stroke-width="2" fill="none" marker-end="url(#SvgjsMarker1118)"></path></g><g id="SvgjsG1120"><path id="SvgjsPath1121" d="M874.0124969482422 208.5L941.0124969482422 208.5" stroke="#323232" stroke-width="2" fill="none" marker-end="url(#SvgjsMarker1122)"></path></g></svg>