<svg id="SvgjsSvg1030" width="413" height="270" xmlns="http://www.w3.org/2000/svg" version="1.1" xmlns:xlink="http://www.w3.org/1999/xlink" xmlns:svgjs="http://svgjs.com/svgjs"><defs id="SvgjsDefs1031"></defs><g id="SvgjsG1032" transform="translate(25,66)"><path id="SvgjsPath1033" d="M 0 4Q 0 0 4 0L 202 0Q 206 0 206 4L 206 175Q 206 179 202 179L 4 179Q 0 179 0 175Z" stroke="rgba(100,181,246,1)" stroke-width="2" fill-opacity="1" fill="#bbdefb"></path><g id="SvgjsG1034"><text id="SvgjsText1035" font-family="微软雅黑" text-anchor="middle" font-size="13px" width="186px" fill="#323232" font-weight="400" align="middle" lineHeight="125%" anchor="middle" family="微软雅黑" size="13px" weight="400" font-style="" opacity="1" y="79.875" transform="rotate(0)"></text></g></g><g id="SvgjsG1036" transform="translate(62,25)"><path id="SvgjsPath1037" d="M 0 0L 120 0L 120 40L 0 40Z" stroke="none" fill="none"></path><g id="SvgjsG1038"><text id="SvgjsText1039" font-family="微软雅黑" text-anchor="middle" font-size="16px" width="120px" fill="#323232" font-weight="400" align="middle" lineHeight="125%" anchor="middle" family="微软雅黑" size="16px" weight="400" font-style="" opacity="1" y="8" transform="rotate(0)"><tspan id="SvgjsTspan1040" dy="20" x="60"><tspan id="SvgjsTspan1041" style="text-decoration:;">浏览器内核</tspan></tspan></text></g></g><g id="SvgjsG1042" transform="translate(62,125)"><path id="SvgjsPath1043" d="M 0 4Q 0 0 4 0L 106 0Q 110 0 110 4L 110 52Q 110 56 106 56L 4 56Q 0 56 0 52Z" stroke="rgba(255,241,118,1)" stroke-width="2" fill-opacity="1" fill="#fff9c4"></path><g id="SvgjsG1044"><text id="SvgjsText1045" font-family="微软雅黑" text-anchor="middle" font-size="16px" width="90px" fill="#323232" font-weight="400" align="middle" lineHeight="125%" anchor="middle" family="微软雅黑" size="16px" weight="400" font-style="" opacity="1" y="16" transform="rotate(0)"><tspan id="SvgjsTspan1046" dy="20" x="55"><tspan id="SvgjsTspan1047" style="text-decoration:;">渲染引擎</tspan></tspan></text></g></g><g id="SvgjsG1048" transform="translate(278,125)"><path id="SvgjsPath1049" d="M 0 4Q 0 0 4 0L 106 0Q 110 0 110 4L 110 52Q 110 56 106 56L 4 56Q 0 56 0 52Z" stroke="rgba(229,115,115,1)" stroke-width="2" fill-opacity="1" fill="#ffcdd2"></path><g id="SvgjsG1050"><text id="SvgjsText1051" font-family="微软雅黑" text-anchor="middle" font-size="16px" width="90px" fill="#323232" font-weight="400" align="middle" lineHeight="125%" anchor="middle" family="微软雅黑" size="16px" weight="400" font-style="" opacity="1" y="16" transform="rotate(0)"><tspan id="SvgjsTspan1052" dy="20" x="55"><tspan id="SvgjsTspan1053" style="text-decoration:;">JS 引擎</tspan></tspan></text></g></g></svg>