<svg id="SvgjsSvg1006" width="392" height="268" xmlns="http://www.w3.org/2000/svg" version="1.1" xmlns:xlink="http://www.w3.org/1999/xlink" xmlns:svgjs="http://svgjs.com/svgjs"><defs id="SvgjsDefs1007"></defs><g id="SvgjsG1008" transform="translate(25,66)"><path id="SvgjsPath1009" d="M 0 4Q 0 0 4 0L 339 0Q 343 0 343 4L 343 173Q 343 177 339 177L 4 177Q 0 177 0 173Z" stroke="rgba(100,181,246,1)" stroke-width="2" fill-opacity="1" fill="#bbdefb"></path><g id="SvgjsG1010"><text id="SvgjsText1011" font-family="微软雅黑" text-anchor="middle" font-size="13px" width="323px" fill="#323232" font-weight="400" align="middle" lineHeight="125%" anchor="middle" family="微软雅黑" size="13px" weight="400" font-style="" opacity="1" y="78.875" transform="rotate(0)"></text></g></g><g id="SvgjsG1012" transform="translate(136,25)"><path id="SvgjsPath1013" d="M 0 0L 120 0L 120 40L 0 40Z" stroke="none" fill="none"></path><g id="SvgjsG1014"><text id="SvgjsText1015" font-family="微软雅黑" text-anchor="middle" font-size="16px" width="120px" fill="#323232" font-weight="400" align="middle" lineHeight="125%" anchor="middle" family="微软雅黑" size="16px" weight="400" font-style="" opacity="1" y="8" transform="rotate(0)"><tspan id="SvgjsTspan1016" dy="20" x="60"><tspan id="SvgjsTspan1017" style="text-decoration:;">浏览器内核</tspan></tspan></text></g></g><g id="SvgjsG1018" transform="translate(62,125)"><path id="SvgjsPath1019" d="M 0 4Q 0 0 4 0L 106 0Q 110 0 110 4L 110 52Q 110 56 106 56L 4 56Q 0 56 0 52Z" stroke="rgba(255,241,118,1)" stroke-width="2" fill-opacity="1" fill="#fff9c4"></path><g id="SvgjsG1020"><text id="SvgjsText1021" font-family="微软雅黑" text-anchor="middle" font-size="16px" width="90px" fill="#323232" font-weight="400" align="middle" lineHeight="125%" anchor="middle" family="微软雅黑" size="16px" weight="400" font-style="" opacity="1" y="16" transform="rotate(0)"><tspan id="SvgjsTspan1022" dy="20" x="55"><tspan id="SvgjsTspan1023" style="text-decoration:;">渲染引擎</tspan></tspan></text></g></g><g id="SvgjsG1024" transform="translate(220,125)"><path id="SvgjsPath1025" d="M 0 4Q 0 0 4 0L 106 0Q 110 0 110 4L 110 52Q 110 56 106 56L 4 56Q 0 56 0 52Z" stroke="rgba(229,115,115,1)" stroke-width="2" fill-opacity="1" fill="#ffcdd2"></path><g id="SvgjsG1026"><text id="SvgjsText1027" font-family="微软雅黑" text-anchor="middle" font-size="16px" width="90px" fill="#323232" font-weight="400" align="middle" lineHeight="125%" anchor="middle" family="微软雅黑" size="16px" weight="400" font-style="" opacity="1" y="16" transform="rotate(0)"><tspan id="SvgjsTspan1028" dy="20" x="55"><tspan id="SvgjsTspan1029" style="text-decoration:;">JS 引擎</tspan></tspan></text></g></g></svg>