<svg id="SvgjsSvg1006" width="943" height="571.6125106811523" xmlns="http://www.w3.org/2000/svg" version="1.1" xmlns:xlink="http://www.w3.org/1999/xlink" xmlns:svgjs="http://svgjs.com/svgjs"><defs id="SvgjsDefs1007"><marker id="SvgjsMarker1022" markerWidth="16" markerHeight="12" refX="16" refY="6" viewBox="0 0 16 12" orient="auto" markerUnits="userSpaceOnUse" stroke-dasharray="0,0"><path id="SvgjsPath1023" d="M0,2 L14,6 L0,11 L0,2" fill="#f44336" stroke="#f44336" stroke-width="2"></path></marker><marker id="SvgjsMarker1081" markerWidth="16" markerHeight="12" refX="16" refY="6" viewBox="0 0 16 12" orient="auto" markerUnits="userSpaceOnUse" stroke-dasharray="0,0"><path id="SvgjsPath1082" d="M0,2 L14,6 L0,11 L0,2" fill="#f44336" stroke="#f44336" stroke-width="2"></path></marker><marker id="SvgjsMarker1104" markerWidth="16" markerHeight="12" refX="16" refY="6" viewBox="0 0 16 12" orient="auto" markerUnits="userSpaceOnUse" stroke-dasharray="0,0"><path id="SvgjsPath1105" d="M0,2 L14,6 L0,11 L0,2" fill="#f44336" stroke="#f44336" stroke-width="2"></path></marker></defs><g id="SvgjsG1008" transform="translate(25,90.98750305175781)"><path id="SvgjsPath1009" d="M 0 0L 120 0L 120 41L 0 41Z" stroke="none" fill="none"></path><g id="SvgjsG1010"><text id="SvgjsText1011" font-family="微软雅黑" text-anchor="middle" font-size="16px" width="120px" fill="#323232" font-weight="400" align="middle" lineHeight="125%" anchor="middle" family="微软雅黑" size="16px" weight="400" font-style="" opacity="1" y="8.5" transform="rotate(0)"><tspan id="SvgjsTspan1012" dy="20" x="60"><tspan id="SvgjsTspan1013" style="text-decoration:;">JavaScript 线程</tspan></tspan></text></g></g><g id="SvgjsG1014" transform="translate(25,397.9875030517578)"><path id="SvgjsPath1015" d="M 0 0L 120 0L 120 41L 0 41Z" stroke="none" fill="none"></path><g id="SvgjsG1016"><text id="SvgjsText1017" font-family="微软雅黑" text-anchor="middle" font-size="16px" width="120px" fill="#323232" font-weight="400" align="middle" lineHeight="125%" anchor="middle" family="微软雅黑" size="16px" weight="400" font-style="" opacity="1" y="8.5" transform="rotate(0)"><tspan id="SvgjsTspan1018" dy="20" x="60"><tspan id="SvgjsTspan1019" style="text-decoration:;">异步调用线程</tspan></tspan></text></g></g><g id="SvgjsG1020"><path id="SvgjsPath1021" d="M160 146.98749923706055L160 427.9875030517578" stroke="#f44336" stroke-width="2" fill="none" marker-end="url(#SvgjsMarker1022)"></path><rect id="SvgjsRect1024" width="96" height="20" x="112" y="277.4875011444092" fill="#ffffff"></rect><text id="SvgjsText1025" font-family="微软雅黑" text-anchor="middle" font-size="16px" width="96px" fill="#323232" font-weight="400" align="top" lineHeight="20px" anchor="middle" family="微软雅黑" size="16px" weight="400" font-style="" opacity="1" y="275.4875011444092" transform="rotate(0)"><tspan id="SvgjsTspan1026" dy="20" x="160"><tspan id="SvgjsTspan1027" style="text-decoration:;">发起异步调用</tspan></tspan></text></g><g id="SvgjsG1028" transform="matrix(6.123233995736766e-17,1,-1,6.123233995736766e-17,299.4545440673828,446.6238708496094)"><path id="SvgjsPath1029" d="M 0 140Q 9 140 9 131L 9 79Q 9 70 22 70Q 9 70 9 61L 9 9Q 9 0 0 0" stroke="rgba(244,67,54,1)" stroke-width="2" fill="none"></path><path id="SvgjsPath1030" d="M 0 0L 100 0L 100 140L 0 140Z" stroke="none" fill="none"></path><g id="SvgjsG1031"><text id="SvgjsText1032" font-family="微软雅黑" text-anchor="start" font-size="13px" width="73px" fill="#323232" font-weight="400" align="middle" lineHeight="125%" anchor="start" family="微软雅黑" size="13px" weight="400" font-style="" opacity="1" y="60.375" transform="rotate(0)"></text></g></g><g id="SvgjsG1033" transform="translate(169.45454545454544,462.62386460737747)"><path id="SvgjsPath1034" d="M 0 0L 120 0L 120 41L 0 41Z" stroke="none" fill="none"></path><g id="SvgjsG1035"><text id="SvgjsText1036" font-family="微软雅黑" text-anchor="middle" font-size="16px" width="120px" fill="#323232" font-weight="400" align="middle" lineHeight="125%" anchor="middle" family="微软雅黑" size="16px" weight="400" font-style="" opacity="1" y="8.5" transform="rotate(0)"><tspan id="SvgjsTspan1037" dy="20" x="60"><tspan id="SvgjsTspan1038" style="text-decoration:;">执行异步任务</tspan></tspan></text></g></g><g id="SvgjsG1039" transform="translate(346,250.1875)"><path id="SvgjsPath1040" d="M 0 0L 512 0L 512 88L 0 88Z" stroke-dasharray="10,6,3,6" stroke="rgba(229,115,115,1)" stroke-width="2" fill-opacity="1" fill="#ffffff"></path><g id="SvgjsG1041"><text id="SvgjsText1042" font-family="微软雅黑" text-anchor="middle" font-size="13px" width="492px" fill="#323232" font-weight="400" align="middle" lineHeight="125%" anchor="middle" family="微软雅黑" size="13px" weight="400" font-style="" opacity="1" y="34.375" transform="rotate(0)"></text></g></g><g id="SvgjsG1043" transform="translate(238,273.6875)"><path id="SvgjsPath1044" d="M 0 0L 120 0L 120 41L 0 41Z" stroke="none" fill="none"></path><g id="SvgjsG1045"><text id="SvgjsText1046" font-family="微软雅黑" text-anchor="middle" font-size="16px" width="120px" fill="#323232" font-weight="400" align="middle" lineHeight="125%" anchor="middle" family="微软雅黑" size="16px" weight="400" font-style="" opacity="1" y="8.5" transform="rotate(0)"><tspan id="SvgjsTspan1047" dy="20" x="60"><tspan id="SvgjsTspan1048" style="text-decoration:;">消息队列</tspan></tspan></text></g></g><g id="SvgjsG1049" transform="translate(372,276.1875)"><path id="SvgjsPath1050" d="M 0 4Q 0 0 4 0L 76 0Q 80 0 80 4L 80 32Q 80 36 76 36L 4 36Q 0 36 0 32Z" stroke="rgba(230,81,0,1)" stroke-width="2" fill-opacity="1" fill="#f44336"></path><g id="SvgjsG1051"><text id="SvgjsText1052" font-family="微软雅黑" text-anchor="middle" font-size="16px" width="60px" fill="#ffffff" font-weight="400" align="middle" lineHeight="125%" anchor="middle" family="微软雅黑" size="16px" weight="400" font-style="" opacity="1" y="6" transform="rotate(0)"><tspan id="SvgjsTspan1053" dy="20" x="40"><tspan id="SvgjsTspan1054" style="text-decoration:;">回调1</tspan></tspan></text></g></g><g id="SvgjsG1055" transform="translate(471,276.1875)"><path id="SvgjsPath1056" d="M 0 4Q 0 0 4 0L 76 0Q 80 0 80 4L 80 32Q 80 36 76 36L 4 36Q 0 36 0 32Z" stroke="rgba(230,81,0,1)" stroke-width="2" fill-opacity="1" fill="#f44336"></path><g id="SvgjsG1057"><text id="SvgjsText1058" font-family="微软雅黑" text-anchor="middle" font-size="16px" width="60px" fill="#ffffff" font-weight="400" align="middle" lineHeight="125%" anchor="middle" family="微软雅黑" size="16px" weight="400" font-style="" opacity="1" y="6" transform="rotate(0)"><tspan id="SvgjsTspan1059" dy="20" x="40"><tspan id="SvgjsTspan1060" style="text-decoration:;">回调2</tspan></tspan></text></g></g><g id="SvgjsG1061" transform="translate(568,276.1875)"><path id="SvgjsPath1062" d="M 0 4Q 0 0 4 0L 76 0Q 80 0 80 4L 80 32Q 80 36 76 36L 4 36Q 0 36 0 32Z" stroke="rgba(230,81,0,1)" stroke-width="2" fill-opacity="1" fill="#f44336"></path><g id="SvgjsG1063"><text id="SvgjsText1064" font-family="微软雅黑" text-anchor="middle" font-size="16px" width="60px" fill="#ffffff" font-weight="400" align="middle" lineHeight="125%" anchor="middle" family="微软雅黑" size="16px" weight="400" font-style="" opacity="1" y="6" transform="rotate(0)"><tspan id="SvgjsTspan1065" dy="20" x="40"><tspan id="SvgjsTspan1066" style="text-decoration:;">回调3</tspan></tspan></text></g></g><g id="SvgjsG1067" transform="translate(667,276.1875)"><path id="SvgjsPath1068" d="M 0 4Q 0 0 4 0L 76 0Q 80 0 80 4L 80 32Q 80 36 76 36L 4 36Q 0 36 0 32Z" stroke="rgba(230,81,0,1)" stroke-width="2" fill-opacity="1" fill="#f44336"></path><g id="SvgjsG1069"><text id="SvgjsText1070" font-family="微软雅黑" text-anchor="middle" font-size="16px" width="60px" fill="#ffffff" font-weight="400" align="middle" lineHeight="125%" anchor="middle" family="微软雅黑" size="16px" weight="400" font-style="" opacity="1" y="6" transform="rotate(0)"><tspan id="SvgjsTspan1071" dy="20" x="40"><tspan id="SvgjsTspan1072" style="text-decoration:;">回调4</tspan></tspan></text></g></g><g id="SvgjsG1073" transform="translate(759,276.1875)"><path id="SvgjsPath1074" d="M 0 4Q 0 0 4 0L 76 0Q 80 0 80 4L 80 32Q 80 36 76 36L 4 36Q 0 36 0 32Z" stroke="rgba(230,81,0,1)" stroke-width="2" fill-opacity="1" fill="#f44336"></path><g id="SvgjsG1075"><text id="SvgjsText1076" font-family="微软雅黑" text-anchor="middle" font-size="16px" width="60px" fill="#ffffff" font-weight="400" align="middle" lineHeight="125%" anchor="middle" family="微软雅黑" size="16px" weight="400" font-style="" opacity="1" y="6" transform="rotate(0)"><tspan id="SvgjsTspan1077" dy="20" x="40"><tspan id="SvgjsTspan1078" style="text-decoration:;">回调5</tspan></tspan></text></g></g><g id="SvgjsG1079"><path id="SvgjsPath1080" d="M298.7391307664952 383.7092444378395L802 383.7092444378395L802 311.1875" stroke="#f44336" stroke-width="2" fill="none" marker-end="url(#SvgjsMarker1081)"></path><rect id="SvgjsRect1083" width="96" height="20" x="538.6304376021674" y="373.7092444378395" fill="#ffffff"></rect><text id="SvgjsText1084" font-family="微软雅黑" text-anchor="middle" font-size="16px" width="96px" fill="#323232" font-weight="400" align="top" lineHeight="20px" anchor="middle" family="微软雅黑" size="16px" weight="400" font-style="" opacity="1" y="371.7092444378395" transform="rotate(0)"><tspan id="SvgjsTspan1085" dy="20" x="586.6304376021674"><tspan id="SvgjsTspan1086" style="text-decoration:;">异步回调排队</tspan></tspan></text></g><g id="SvgjsG1087"><path id="SvgjsPath1088" d="M300.0100334448163 430.1647567621443L300.0100334448163 407.1647567621443L300.0100334448163 407.1647567621443L300.0100334448163 384.1647567621443" stroke="#f44336" stroke-width="2" fill="none"></path></g><g id="SvgjsG1089" transform="matrix(6.123233995736766e-17,1,-1,6.123233995736766e-17,721.6875,25.000000000000014)"><path id="SvgjsPath1090" d="M 104.37499999999994 0Q 95.37499999999994 0 95.37499999999994 9L 95.37499999999994 270.6875Q 95.37499999999994 279.6875 82.37499999999994 279.6875Q 95.37499999999994 279.6875 95.37499999999994 288.6875L 95.37499999999994 550.375Q 95.37499999999994 559.375 104.37499999999994 559.375" stroke="rgba(244,67,54,1)" stroke-width="2" fill="none"></path><path id="SvgjsPath1091" d="M 0 0L 104.37499999999994 0L 104.37499999999994 559.375L 0 559.375Z" stroke="none" fill="none"></path><g id="SvgjsG1092"><text id="SvgjsText1093" font-family="微软雅黑" text-anchor="end" font-size="13px" width="78px" fill="#323232" font-weight="400" align="middle" lineHeight="125%" anchor="end" family="微软雅黑" size="13px" weight="400" font-style="" opacity="1" y="270.0625" transform="rotate(0)"></text></g></g><g id="SvgjsG1094" transform="translate(369.49999999999994,70.6875)"><path id="SvgjsPath1095" d="M 0 0L 145 0L 145 41L 0 41Z" stroke="none" fill="none"></path><g id="SvgjsG1096"><text id="SvgjsText1097" font-family="微软雅黑" text-anchor="middle" font-size="16px" width="145px" fill="#323232" font-weight="400" align="middle" lineHeight="125%" anchor="middle" family="微软雅黑" size="16px" weight="400" font-style="" opacity="1" y="8.5" transform="rotate(0)"><tspan id="SvgjsTspan1098" dy="20" x="72.5"><tspan id="SvgjsTspan1099" style="text-decoration:;">执行本轮其它任务</tspan></tspan></text></g></g><g id="SvgjsG1100"><path id="SvgjsPath1101" d="M415.32142857142856 275.6358696481457L415.32142857142856 201.11413043478262L724.5822981366455 201.11413043478262" stroke="#f44336" stroke-width="2" fill="none"></path></g><g id="SvgjsG1102"><path id="SvgjsPath1103" d="M725.0714285714286 201.54891304347828L725.0714285714286 175.46195652173915L725.0714285714286 175.46195652173915L725.0714285714286 149.37500000000003" stroke="#f44336" stroke-width="2" fill="none" marker-end="url(#SvgjsMarker1104)"></path></g><g id="SvgjsG1106" transform="matrix(6.123233995736766e-17,1,-1,6.123233995736766e-17,869,29.374999999999993)"><path id="SvgjsPath1107" d="M 100 0Q 91 0 91 9L 91 61Q 91 70 78 70Q 91 70 91 79L 91 131Q 91 140 100 140" stroke="rgba(244,67,54,1)" stroke-width="2" fill="none"></path><path id="SvgjsPath1108" d="M 0 0L 100 0L 100 140L 0 140Z" stroke="none" fill="none"></path><g id="SvgjsG1109"><text id="SvgjsText1110" font-family="微软雅黑" text-anchor="end" font-size="13px" width="73px" fill="#323232" font-weight="400" align="middle" lineHeight="125%" anchor="end" family="微软雅黑" size="13px" weight="400" font-style="" opacity="1" y="60.375" transform="rotate(0)"></text></g></g><g id="SvgjsG1111" transform="translate(726.5,70.6875)"><path id="SvgjsPath1112" d="M 0 0L 145 0L 145 41L 0 41Z" stroke="none" fill="none"></path><g id="SvgjsG1113"><text id="SvgjsText1114" font-family="微软雅黑" text-anchor="middle" font-size="16px" width="145px" fill="#323232" font-weight="400" align="middle" lineHeight="125%" anchor="middle" family="微软雅黑" size="16px" weight="400" font-style="" opacity="1" y="8.5" transform="rotate(0)"><tspan id="SvgjsTspan1115" dy="20" x="72.5"><tspan id="SvgjsTspan1116" style="text-decoration:;">执行回调</tspan></tspan></text></g></g><g id="SvgjsG1117" transform="translate(25,124.98750305175781)"><path id="SvgjsPath1118" d="M 0 8.843998489379883L 879.1999931335449 8.843998489379883L 879.1999931335449 0L 892.5999908447266 13.39999771118164L 879.1999931335449 26.79999542236328L 879.1999931335449 17.9559969329834L 0 17.9559969329834L 0 8.843998489379883Z" stroke="rgba(0,151,167,1)" stroke-width="2" fill-opacity="1" fill="#0097a7"></path><g id="SvgjsG1119"><text id="SvgjsText1120" font-family="微软雅黑" text-anchor="middle" font-size="13px" width="893px" fill="#323232" font-weight="400" align="middle" lineHeight="125%" anchor="middle" family="微软雅黑" size="13px" weight="400" font-style="" opacity="1" y="3.7749977111816415" transform="rotate(0)"></text></g></g><g id="SvgjsG1121" transform="translate(25,424.9875030517578)"><path id="SvgjsPath1122" d="M 0 8.843998489379883L 879.1999931335449 8.843998489379883L 879.1999931335449 0L 892.5999908447266 13.39999771118164L 879.1999931335449 26.79999542236328L 879.1999931335449 17.9559969329834L 0 17.9559969329834L 0 8.843998489379883Z" stroke="rgba(25,118,210,1)" stroke-width="2" fill-opacity="1" fill="#1976d2"></path><g id="SvgjsG1123"><text id="SvgjsText1124" font-family="微软雅黑" text-anchor="middle" font-size="13px" width="893px" fill="#323232" font-weight="400" align="middle" lineHeight="125%" anchor="middle" family="微软雅黑" size="13px" weight="400" font-style="" opacity="1" y="3.7749977111816415" transform="rotate(0)"></text></g></g></svg>