<?xml version="1.0" standalone="no"?><?xml-stylesheet type="text/css" href="https://www.processon.com/themes/default/mind/icons/icons.css" ?><!DOCTYPE svg PUBLIC "-//W3C//DTD SVG 1.1//EN" "http://www.w3.org/Graphics/SVG/1.1/DTD/svg11.dtd">
<svg xmlns="http://www.w3.org/2000/svg" version="1.1" xlink="http://www.w3.org/1999/xlink" id="mind-svg-con" width="516.4125366210938px" height="609.0000076293945px" style="position: absolute; left: 0px; top: 0px; width: 516.413px; height: 609px; background: transparent; z-index: 999;"><defs></defs><g id="svgbackgroundid"><defs></defs><rect x="0" y="0" width="516.4125366210938" height="609.0000076293945" fill="transparent"></rect></g><g transform="translate(-9927, -9643.999809265137)" id="sdjakdjak6"><defs></defs><g class="svg-topic-con" transform="translate(0.5,0.5)"><path part="right" sub="true" id="line_a24c0cb3089d" d="M 10000 9948.999816894531 L 10073 9948.999816894531 L 10073 9699.224809646606 A 8 8 0 0 1 10081 9691.224809646606 L 10103 9691.224809646606" stroke="#0D47A1" fill="none" stroke-width="1"></path><path part="right" sub="true" id="line_cd0db7647847" d="M 10000 9948.999816894531 L 10073 9948.999816894531 L 10073 9770.187301635742 A 8 8 0 0 1 10081 9762.187301635742 L 10103 9762.187301635742" stroke="#0D47A1" fill="none" stroke-width="1"></path><path part="right" sub="true" id="line_99eeca406aca" d="M 10000 9948.999816894531 L 10073 9948.999816894531 L 10073 9916.968551635742 A 8 8 0 0 1 10081 9908.968551635742 L 10103 9908.968551635742" stroke="#0D47A1" fill="none" stroke-width="1"></path><path part="right" sub="true" id="line_b2228e54684e" d="M 10000 9948.999816894531 L 10073 9948.999816894531 L 10073 10087.374816894531 A 8 8 0 0 0 10081 10095.374816894531 L 10103 10095.374816894531" stroke="#0D47A1" fill="none" stroke-width="1"></path><path part="right" sub="true" id="line_ddf041140e77" d="M 10000 9948.999816894531 L 10073 9948.999816894531 L 10073 10198.224817276001 A 8 8 0 0 0 10081 10206.224817276001 L 10103 10206.224817276001" stroke="#0D47A1" fill="none" stroke-width="1"></path></g><g class="svg-connection-con" transform="translate(0.5,0.5)"></g><g class="svg-freesums-con" transform="translate(0.5,0.5)"></g><g class="svg-freebos-con" transform="translate(0.5,0.5)"></g></g><g transform="translate(30, 284.00000762939453)" id="sdjakdjak5"><g id="subline_root" transform="translate(0.5,0.5)"></g><g transform="translate(0.5,0.5)"></g><g class="svg-summary-con" transform="translate(0.5,0.5)"></g><g class="svg-boundary-con" transform="translate(0.5,0.5)"></g></g><g transform="translate(176, 30)" id="sdjakdjak4"><g id="subline_a24c0cb3089d" transform="translate(0.5,0.5)"><path id="line_d565208cd874" d="M 109.7249984741211 17.225000381469727 L 128 17.225000381469727 L 128 17.21875 L 145.72503662109375 17.21875" p="a24c0cb3089d" stroke="#0D47A1" fill="none" stroke-linecap="square" stroke-width="1"></path></g><g transform="translate(0.5,0.5)"></g><g class="svg-summary-con" transform="translate(0.5,0.5)"></g><g class="svg-boundary-con" transform="translate(0.5,0.5)"></g></g><g transform="translate(176, 83.99999237060547)" id="sdjakdjak3"><g id="subline_cd0db7647847" transform="translate(0.5,0.5)"><path id="line_3dd122054953" d="M 118.4124984741211 34.1875 L 137 34.1875 L 137 18.59375 A 4 4 0 0 1 141 14.59375 L 154.41253662109375 14.59375" p="cd0db7647847" stroke="#0D47A1" fill="none" stroke-linecap="square" stroke-width="1"></path><path id="line_728503f22120" d="M 118.4124984741211 34.1875 L 137 34.1875 L 137 49.78125 A 4 4 0 0 0 141 53.78125 L 154.41253662109375 53.78125" p="cd0db7647847" stroke="#0D47A1" fill="none" stroke-linecap="square" stroke-width="1"></path></g><g transform="translate(0.5,0.5)"></g><g class="svg-summary-con" transform="translate(0.5,0.5)"></g><g class="svg-boundary-con" transform="translate(0.5,0.5)"></g></g><g transform="translate(176, 171.99999237060547)" id="sdjakdjak2"><g id="subline_99eeca406aca" transform="translate(0.5,0.5)"><path id="line_264a2481b2af" d="M 67 92.96875 L 85 92.96875 L 85 18.59375 A 4 4 0 0 1 89 14.59375 L 103 14.59375" p="99eeca406aca" stroke="#0D47A1" fill="none" stroke-linecap="square" stroke-width="1"></path><path id="line_773a01d7d780" d="M 67 92.96875 L 85 92.96875 L 85 57.78126525878906 A 4 4 0 0 1 89 53.78126525878906 L 103 53.78126525878906" p="99eeca406aca" stroke="#0D47A1" fill="none" stroke-linecap="square" stroke-width="1"></path><path id="line_9bdf63505c2e" d="M 67 92.96875 L 85 92.96875 L 85 92.96876525878906 L 103 92.96876525878906" p="99eeca406aca" stroke="#0D47A1" fill="none" stroke-linecap="square" stroke-width="1"></path><path id="line_a9fb29b6e315" d="M 67 92.96875 L 85 92.96875 L 85 128.15626525878906 A 4 4 0 0 0 89 132.15626525878906 L 103 132.15626525878906" p="99eeca406aca" stroke="#0D47A1" fill="none" stroke-linecap="square" stroke-width="1"></path><path id="line_d6bbdbb2098e" d="M 67 92.96875 L 85 92.96875 L 85 167.34376525878906 A 4 4 0 0 0 89 171.34376525878906 L 103 171.34376525878906" p="99eeca406aca" stroke="#0D47A1" fill="none" stroke-linecap="square" stroke-width="1"></path></g><g transform="translate(0.5,0.5)"></g><g class="svg-summary-con" transform="translate(0.5,0.5)"></g><g class="svg-boundary-con" transform="translate(0.5,0.5)"></g></g><g transform="translate(176, 378.00000762939453)" id="sdjakdjak1"><g id="subline_b2228e54684e" transform="translate(0.5,0.5)"><path id="line_cef252247b35" d="M 67 73.375 L 85 73.375 L 85 18.59375 A 4 4 0 0 1 89 14.59375 L 103 14.59375" p="b2228e54684e" stroke="#0D47A1" fill="none" stroke-linecap="square" stroke-width="1"></path><path id="line_77dc79209cc8" d="M 67 73.375 L 85 73.375 L 85 57.78125 A 4 4 0 0 1 89 53.78125 L 103 53.78125" p="b2228e54684e" stroke="#0D47A1" fill="none" stroke-linecap="square" stroke-width="1"></path><path id="line_396d2cdd1566" d="M 67 73.375 L 85 73.375 L 85 88.96875 A 4 4 0 0 0 89 92.96875 L 103 92.96875" p="b2228e54684e" stroke="#0D47A1" fill="none" stroke-linecap="square" stroke-width="1"></path><path id="line_06443eb5948b" d="M 67 73.375 L 85 73.375 L 85 128.15625 A 4 4 0 0 0 89 132.15625 L 103 132.15625" p="b2228e54684e" stroke="#0D47A1" fill="none" stroke-linecap="square" stroke-width="1"></path></g><g transform="translate(0.5,0.5)"></g><g class="svg-summary-con" transform="translate(0.5,0.5)"></g><g class="svg-boundary-con" transform="translate(0.5,0.5)"></g></g><g transform="translate(176, 545.0000076293945)" id="sdjakdjak0"><g id="subline_ddf041140e77" transform="translate(0.5,0.5)"><path id="line_469427f946c0" d="M 148.41250610351562 17.225000381469727 L 167 17.225000381469727 L 167 17.21875 L 184.41253662109375 17.21875" p="ddf041140e77" stroke="#0D47A1" fill="none" stroke-linecap="square" stroke-width="1"></path></g><g transform="translate(0.5,0.5)"></g><g class="svg-summary-con" transform="translate(0.5,0.5)"></g><g class="svg-boundary-con" transform="translate(0.5,0.5)"></g></g><g id="ddf041140e77"><rect x="176" y="545.0000076293945" rx="6px" ry="6px" width="148" height="34" style="fill: #BBDEFB; stroke:#1976D2;stroke-width:1px;"></rect><g><text text-anchor="start" align="top" anchor="start" font-size="15px" font-weight="normal" fill="rgb(0, 0, 0)" style="font-size:15px;font-family:微软雅黑;color:#000000;font-style:normal;text-align:left;font-weight:normal;border-color:#1976D2;font-style: normal;background-color:#BBDEFB;"><tspan x="187" y="567.4500198364258"><tspan>数据链路层/物理层</tspan></tspan></text></g></g><g id="469427f946c0"><rect x="360.41253662109375" y="547.6250076293945" rx="1px" ry="1px" width="65" height="29" style="fill: transparent; stroke:none;"></rect><g><text text-anchor="start" align="top" anchor="start" font-size="13px" font-weight="normal" fill="rgb(0, 0, 0)" style="font-size:13px;font-family:微软雅黑;color:#000000;font-style:normal;text-align:left;font-weight:normal;font-style: normal;"><tspan x="370.41253662109375" y="566.6124954223633"><tspan>ethtool</tspan></tspan></text></g></g><g id="b2228e54684e"><rect x="176" y="434.1500015258789" rx="6px" ry="6px" width="67" height="34" style="fill: #BBDEFB; stroke:#1976D2;stroke-width:1px;"></rect><g><text text-anchor="start" align="top" anchor="start" font-size="15px" font-weight="normal" fill="rgb(0, 0, 0)" style="font-size:15px;font-family:微软雅黑;color:#000000;font-style:normal;text-align:left;font-weight:normal;border-color:#1976D2;font-style: normal;background-color:#BBDEFB;"><tspan x="187" y="456.60001373291016"><tspan>网络层</tspan></tspan></text></g></g><g id="cef252247b35"><rect x="279" y="378.00000762939453" rx="1px" ry="1px" width="84" height="29" style="fill: transparent; stroke:none;"></rect><g><text text-anchor="start" align="top" anchor="start" font-size="13px" font-weight="normal" fill="rgb(0, 0, 0)" style="font-size:13px;font-family:微软雅黑;color:#000000;font-style:normal;text-align:left;font-weight:normal;font-style: normal;"><tspan x="289" y="396.9874954223633"><tspan>traceroute</tspan></tspan></text></g></g><g id="77dc79209cc8"><rect x="279" y="417.18750762939453" rx="1px" ry="1px" width="53" height="29" style="fill: transparent; stroke:none;"></rect><g><text text-anchor="start" align="top" anchor="start" font-size="13px" font-weight="normal" fill="rgb(0, 0, 0)" style="font-size:13px;font-family:微软雅黑;color:#000000;font-style:normal;text-align:left;font-weight:normal;font-style: normal;"><tspan x="289" y="436.1749954223633"><tspan>route</tspan></tspan></text></g></g><g id="396d2cdd1566"><rect x="279" y="456.37500762939453" rx="1px" ry="1px" width="50" height="29" style="fill: transparent; stroke:none;"></rect><g><text text-anchor="start" align="top" anchor="start" font-size="13px" font-weight="normal" fill="rgb(0, 0, 0)" style="font-size:13px;font-family:微软雅黑;color:#000000;font-style:normal;text-align:left;font-weight:normal;font-style: normal;"><tspan x="289" y="475.3624954223633"><tspan>mtr</tspan></tspan></text></g></g><g id="06443eb5948b"><rect x="279" y="495.56250762939453" rx="1px" ry="1px" width="50" height="29" style="fill: transparent; stroke:none;"></rect><g><text text-anchor="start" align="top" anchor="start" font-size="13px" font-weight="normal" fill="rgb(0, 0, 0)" style="font-size:13px;font-family:微软雅黑;color:#000000;font-style:normal;text-align:left;font-weight:normal;font-style: normal;"><tspan x="289" y="514.5499954223633"><tspan>ip</tspan></tspan></text></g></g><g id="99eeca406aca"><rect x="176" y="247.75000762939453" rx="6px" ry="6px" width="67" height="34" style="fill: #BBDEFB; stroke:#1976D2;stroke-width:1px;"></rect><g><text text-anchor="start" align="top" anchor="start" font-size="15px" font-weight="normal" fill="rgb(0, 0, 0)" style="font-size:15px;font-family:微软雅黑;color:#000000;font-style:normal;text-align:left;font-weight:normal;border-color:#1976D2;font-style: normal;background-color:#BBDEFB;"><tspan x="187" y="270.19998931884766"><tspan>传输层</tspan></tspan></text></g></g><g id="264a2481b2af"><rect x="279" y="171.99999237060547" rx="1px" ry="1px" width="50" height="29" style="fill: transparent; stroke:none;"></rect><g><text text-anchor="start" align="top" anchor="start" font-size="13px" font-weight="normal" fill="rgb(0, 0, 0)" style="font-size:13px;font-family:微软雅黑;color:#000000;font-style:normal;text-align:left;font-weight:normal;font-style: normal;"><tspan x="289" y="190.98749542236328"><tspan>nc</tspan></tspan></text></g></g><g id="773a01d7d780"><rect x="279" y="211.18750762939453" rx="1px" ry="1px" width="50" height="29" style="fill: transparent; stroke:none;"></rect><g><text text-anchor="start" align="top" anchor="start" font-size="13px" font-weight="normal" fill="rgb(0, 0, 0)" style="font-size:13px;font-family:微软雅黑;color:#000000;font-style:normal;text-align:left;font-weight:normal;font-style: normal;"><tspan x="289" y="230.17499542236328"><tspan>iftop</tspan></tspan></text></g></g><g id="9bdf63505c2e"><rect x="279" y="250.37500762939453" rx="1px" ry="1px" width="56" height="29" style="fill: transparent; stroke:none;"></rect><g><text text-anchor="start" align="top" anchor="start" font-size="13px" font-weight="normal" fill="rgb(0, 0, 0)" style="font-size:13px;font-family:微软雅黑;color:#000000;font-style:normal;text-align:left;font-weight:normal;font-style: normal;"><tspan x="289" y="269.3624954223633"><tspan>telnet</tspan></tspan></text></g></g><g id="a9fb29b6e315"><rect x="279" y="289.56250762939453" rx="1px" ry="1px" width="63" height="29" style="fill: transparent; stroke:none;"></rect><g><text text-anchor="start" align="top" anchor="start" font-size="13px" font-weight="normal" fill="rgb(0, 0, 0)" style="font-size:13px;font-family:微软雅黑;color:#000000;font-style:normal;text-align:left;font-weight:normal;font-style: normal;"><tspan x="289" y="308.5499954223633"><tspan>netstat</tspan></tspan></text></g></g><g id="d6bbdbb2098e"><rect x="279" y="328.75000762939453" rx="1px" ry="1px" width="50" height="29" style="fill: transparent; stroke:none;"></rect><g><text text-anchor="start" align="top" anchor="start" font-size="13px" font-weight="normal" fill="rgb(0, 0, 0)" style="font-size:13px;font-family:微软雅黑;color:#000000;font-style:normal;text-align:left;font-weight:normal;font-style: normal;"><tspan x="289" y="347.7374954223633"><tspan>ss</tspan></tspan></text></g></g><g id="cd0db7647847"><rect x="176" y="100.9625015258789" rx="6px" ry="6px" width="118" height="34" style="fill: #BBDEFB; stroke:#1976D2;stroke-width:1px;"></rect><g><text text-anchor="start" align="top" anchor="start" font-size="15px" font-weight="normal" fill="rgb(0, 0, 0)" style="font-size:15px;font-family:微软雅黑;color:#000000;font-style:normal;text-align:left;font-weight:normal;border-color:#1976D2;font-style: normal;background-color:#BBDEFB;"><tspan x="187" y="123.4124984741211"><tspan>表示层/会话层</tspan></tspan></text></g></g><g id="3dd122054953"><rect x="330.41253662109375" y="83.99999237060547" rx="1px" ry="1px" width="124" height="29" style="fill: transparent; stroke:none;"></rect><g><text text-anchor="start" align="top" anchor="start" font-size="13px" font-weight="normal" fill="rgb(0, 0, 0)" style="font-size:13px;font-family:微软雅黑;color:#000000;font-style:normal;text-align:left;font-weight:normal;font-style: normal;"><tspan x="340.41253662109375" y="102.98749542236328"><tspan>浏览器开发者工具</tspan></tspan></text></g></g><g id="728503f22120"><rect x="330.41253662109375" y="123.18749237060547" rx="1px" ry="1px" width="156" height="29" style="fill: transparent; stroke:none;"></rect><g><text text-anchor="start" align="top" anchor="start" font-size="13px" font-weight="normal" fill="rgb(0, 0, 0)" style="font-size:13px;font-family:微软雅黑;color:#000000;font-style:normal;text-align:left;font-weight:normal;font-style: normal;"><tspan x="340.41253662109375" y="142.17499542236328"><tspan>tcpdump + Wireshark</tspan></tspan></text></g></g><g id="a24c0cb3089d"><rect x="176" y="30" rx="6px" ry="6px" width="110" height="34" style="fill: #BBDEFB; stroke:#1976D2;stroke-width:1px;"></rect><g><text text-anchor="start" align="top" anchor="start" font-size="15px" font-weight="normal" fill="rgb(0, 0, 0)" style="font-size:15px;font-family:微软雅黑;color:#000000;font-style:normal;text-align:left;font-weight:normal;background-color:#BBDEFB;border-color:#1976D2;font-style: normal;"><tspan x="187" y="52.44999694824219"><tspan>应用层 HTTP</tspan></tspan></text></g></g><g id="d565208cd874"><rect x="321.72503662109375" y="32.625" rx="1px" ry="1px" width="124" height="29" style="fill: transparent; stroke:none;"></rect><g><text text-anchor="start" align="top" anchor="start" font-size="13px" font-weight="normal" fill="rgb(0, 0, 0)" style="font-size:13px;font-family:微软雅黑;color:#000000;font-style:normal;text-align:left;font-weight:normal;font-style: normal;"><tspan x="331.72503662109375" y="51.61249542236328"><tspan>浏览器开发者工具</tspan></tspan></text></g></g><g id="root"><rect x="30" y="284.00000762939453" rx="6px" ry="6px" width="86" height="42" style="fill: #1976D2; stroke:#1976D2;stroke-width:1px;"></rect><g><text text-anchor="start" align="top" anchor="start" font-size="16px" font-weight="normal" fill="rgb(255, 255, 255)" style="font-size:16px;font-family:微软雅黑;color:#FFFFFF;font-style:normal;text-align:left;font-weight:normal;background-color:#1976D2;border-color:#1976D2;font-style: normal;"><tspan x="41" y="310.2750015258789"><tspan>排查工具</tspan></tspan></text></g></g></svg>
