<svg id="SvgjsSvg1288" width="942" height="556" xmlns="http://www.w3.org/2000/svg" version="1.1" xmlns:xlink="http://www.w3.org/1999/xlink" xmlns:svgjs="http://svgjs.com/svgjs"><defs id="SvgjsDefs1289"><marker id="SvgjsMarker1346" markerWidth="14" markerHeight="10" refX="10" refY="5" viewBox="0 0 14 10" orient="auto" markerUnits="userSpaceOnUse" stroke-dasharray="0,0"><path id="SvgjsPath1347" d="M0,0 L14,5 L0,10 L0,0" fill="#323232" stroke="#323232" stroke-width="1"></path></marker><marker id="SvgjsMarker1350" markerWidth="14" markerHeight="10" refX="10" refY="5" viewBox="0 0 14 10" orient="auto" markerUnits="userSpaceOnUse" stroke-dasharray="0,0"><path id="SvgjsPath1351" d="M0,0 L14,5 L0,10 L0,0" fill="#323232" stroke="#323232" stroke-width="1"></path></marker><marker id="SvgjsMarker1354" markerWidth="14" markerHeight="10" refX="10" refY="5" viewBox="0 0 14 10" orient="auto" markerUnits="userSpaceOnUse" stroke-dasharray="0,0"><path id="SvgjsPath1355" d="M0,0 L14,5 L0,10 L0,0" fill="#323232" stroke="#323232" stroke-width="1"></path></marker><marker id="SvgjsMarker1364" markerWidth="14" markerHeight="10" refX="10" refY="5" viewBox="0 0 14 10" orient="auto" markerUnits="userSpaceOnUse" stroke-dasharray="0,0"><path id="SvgjsPath1365" d="M0,0 L14,5 L0,10 L0,0" fill="#323232" stroke="#323232" stroke-width="1"></path></marker><marker id="SvgjsMarker1380" markerWidth="14" markerHeight="10" refX="10" refY="5" viewBox="0 0 14 10" orient="auto" markerUnits="userSpaceOnUse" stroke-dasharray="0,0"><path id="SvgjsPath1381" d="M0,0 L14,5 L0,10 L0,0" fill="#323232" stroke="#323232" stroke-width="1"></path></marker><marker id="SvgjsMarker1384" markerWidth="14" markerHeight="10" refX="10" refY="5" viewBox="0 0 14 10" orient="auto" markerUnits="userSpaceOnUse" stroke-dasharray="0,0"><path id="SvgjsPath1385" d="M0,0 L14,5 L0,10 L0,0" fill="#323232" stroke="#323232" stroke-width="1"></path></marker><marker id="SvgjsMarker1436" markerWidth="14" markerHeight="10" refX="10" refY="5" viewBox="0 0 14 10" orient="auto" markerUnits="userSpaceOnUse" stroke-dasharray="0,0"><path id="SvgjsPath1437" d="M0,0 L14,5 L0,10 L0,0" fill="#323232" stroke="#323232" stroke-width="1"></path></marker><marker id="SvgjsMarker1440" markerWidth="14" markerHeight="10" refX="10" refY="5" viewBox="0 0 14 10" orient="auto" markerUnits="userSpaceOnUse" stroke-dasharray="0,0"><path id="SvgjsPath1441" d="M0,0 L14,5 L0,10 L0,0" fill="#323232" stroke="#323232" stroke-width="1"></path></marker><marker id="SvgjsMarker1444" markerWidth="14" markerHeight="10" refX="10" refY="5" viewBox="0 0 14 10" orient="auto" markerUnits="userSpaceOnUse" stroke-dasharray="0,0"><path id="SvgjsPath1445" d="M0,0 L14,5 L0,10 L0,0" fill="#323232" stroke="#323232" stroke-width="1"></path></marker><marker id="SvgjsMarker1454" markerWidth="14" markerHeight="10" refX="10" refY="5" viewBox="0 0 14 10" orient="auto" markerUnits="userSpaceOnUse" stroke-dasharray="0,0"><path id="SvgjsPath1455" d="M0,0 L14,5 L0,10 L0,0" fill="#323232" stroke="#323232" stroke-width="1"></path></marker><marker id="SvgjsMarker1470" markerWidth="14" markerHeight="10" refX="10" refY="5" viewBox="0 0 14 10" orient="auto" markerUnits="userSpaceOnUse" stroke-dasharray="0,0"><path id="SvgjsPath1471" d="M0,0 L14,5 L0,10 L0,0" fill="#323232" stroke="#323232" stroke-width="1"></path></marker><marker id="SvgjsMarker1474" markerWidth="14" markerHeight="10" refX="10" refY="5" viewBox="0 0 14 10" orient="auto" markerUnits="userSpaceOnUse" stroke-dasharray="0,0"><path id="SvgjsPath1475" d="M0,0 L14,5 L0,10 L0,0" fill="#323232" stroke="#323232" stroke-width="1"></path></marker><marker id="SvgjsMarker1478" markerWidth="14" markerHeight="10" refX="10" refY="5" viewBox="0 0 14 10" orient="auto" markerUnits="userSpaceOnUse" stroke-dasharray="0,0"><path id="SvgjsPath1479" d="M0,0 L14,5 L0,10 L0,0" fill="#323232" stroke="#323232" stroke-width="1"></path></marker><marker id="SvgjsMarker1482" markerWidth="14" markerHeight="10" refX="10" refY="5" viewBox="0 0 14 10" orient="auto" markerUnits="userSpaceOnUse" stroke-dasharray="0,0"><path id="SvgjsPath1483" d="M0,0 L14,5 L0,10 L0,0" fill="#323232" stroke="#323232" stroke-width="1"></path></marker><marker id="SvgjsMarker1486" markerWidth="14" markerHeight="10" refX="10" refY="5" viewBox="0 0 14 10" orient="auto" markerUnits="userSpaceOnUse" stroke-dasharray="0,0"><path id="SvgjsPath1487" d="M0,0 L14,5 L0,10 L0,0" fill="#323232" stroke="#323232" stroke-width="1"></path></marker><marker id="SvgjsMarker1490" markerWidth="14" markerHeight="10" refX="10" refY="5" viewBox="0 0 14 10" orient="auto" markerUnits="userSpaceOnUse" stroke-dasharray="0,0"><path id="SvgjsPath1491" d="M0,0 L14,5 L0,10 L0,0" fill="#323232" stroke="#323232" stroke-width="1"></path></marker><marker id="SvgjsMarker1506" markerWidth="14" markerHeight="10" refX="10" refY="5" viewBox="0 0 14 10" orient="auto" markerUnits="userSpaceOnUse" stroke-dasharray="0,0"><path id="SvgjsPath1507" d="M0,0 L14,5 L0,10 L0,0" fill="#323232" stroke="#323232" stroke-width="1"></path></marker><marker id="SvgjsMarker1510" markerWidth="14" markerHeight="10" refX="10" refY="5" viewBox="0 0 14 10" orient="auto" markerUnits="userSpaceOnUse" stroke-dasharray="0,0"><path id="SvgjsPath1511" d="M0,0 L14,5 L0,10 L0,0" fill="#323232" stroke="#323232" stroke-width="1"></path></marker><marker id="SvgjsMarker1514" markerWidth="14" markerHeight="10" refX="4" refY="5" viewBox="0 0 14 10" orient="auto" markerUnits="userSpaceOnUse" stroke-dasharray="0,0"><path id="SvgjsPath1515" d="M14,0 L0,5 L14,10 L14,0" fill="#323232" stroke="#323232" stroke-width="1"></path></marker><marker id="SvgjsMarker1516" markerWidth="14" markerHeight="10" refX="10" refY="5" viewBox="0 0 14 10" orient="auto" markerUnits="userSpaceOnUse" stroke-dasharray="0,0"><path id="SvgjsPath1517" d="M0,0 L14,5 L0,10 L0,0" fill="#323232" stroke="#323232" stroke-width="1"></path></marker><marker id="SvgjsMarker1520" markerWidth="14" markerHeight="10" refX="10" refY="5" viewBox="0 0 14 10" orient="auto" markerUnits="userSpaceOnUse" stroke-dasharray="0,0"><path id="SvgjsPath1521" d="M0,0 L14,5 L0,10 L0,0" fill="#323232" stroke="#323232" stroke-width="1"></path></marker><marker id="SvgjsMarker1524" markerWidth="14" markerHeight="10" refX="10" refY="5" viewBox="0 0 14 10" orient="auto" markerUnits="userSpaceOnUse" stroke-dasharray="0,0"><path id="SvgjsPath1525" d="M0,0 L14,5 L0,10 L0,0" fill="#323232" stroke="#323232" stroke-width="1"></path></marker><marker id="SvgjsMarker1528" markerWidth="14" markerHeight="10" refX="4" refY="5" viewBox="0 0 14 10" orient="auto" markerUnits="userSpaceOnUse" stroke-dasharray="0,0"><path id="SvgjsPath1529" d="M14,0 L0,5 L14,10 L14,0" fill="#323232" stroke="#323232" stroke-width="1"></path></marker><marker id="SvgjsMarker1530" markerWidth="14" markerHeight="10" refX="10" refY="5" viewBox="0 0 14 10" orient="auto" markerUnits="userSpaceOnUse" stroke-dasharray="0,0"><path id="SvgjsPath1531" d="M0,0 L14,5 L0,10 L0,0" fill="#323232" stroke="#323232" stroke-width="1"></path></marker><marker id="SvgjsMarker1546" markerWidth="14" markerHeight="10" refX="10" refY="5" viewBox="0 0 14 10" orient="auto" markerUnits="userSpaceOnUse" stroke-dasharray="0,0"><path id="SvgjsPath1547" d="M0,0 L14,5 L0,10 L0,0" fill="#323232" stroke="#323232" stroke-width="1"></path></marker><marker id="SvgjsMarker1550" markerWidth="14" markerHeight="10" refX="10" refY="5" viewBox="0 0 14 10" orient="auto" markerUnits="userSpaceOnUse" stroke-dasharray="0,0"><path id="SvgjsPath1551" d="M0,0 L14,5 L0,10 L0,0" fill="#323232" stroke="#323232" stroke-width="1"></path></marker><marker id="SvgjsMarker1554" markerWidth="14" markerHeight="10" refX="10" refY="5" viewBox="0 0 14 10" orient="auto" markerUnits="userSpaceOnUse" stroke-dasharray="0,0"><path id="SvgjsPath1555" d="M0,0 L14,5 L0,10 L0,0" fill="#323232" stroke="#323232" stroke-width="1"></path></marker><marker id="SvgjsMarker1558" markerWidth="14" markerHeight="10" refX="10" refY="5" viewBox="0 0 14 10" orient="auto" markerUnits="userSpaceOnUse" stroke-dasharray="0,0"><path id="SvgjsPath1559" d="M0,0 L14,5 L0,10 L0,0" fill="#323232" stroke="#323232" stroke-width="1"></path></marker><marker id="SvgjsMarker1566" markerWidth="14" markerHeight="10" refX="4" refY="5" viewBox="0 0 14 10" orient="auto" markerUnits="userSpaceOnUse" stroke-dasharray="0,0"><path id="SvgjsPath1567" d="M14,0 L0,5 L14,10 L14,0" fill="#323232" stroke="#323232" stroke-width="1"></path></marker><marker id="SvgjsMarker1568" markerWidth="14" markerHeight="10" refX="10" refY="5" viewBox="0 0 14 10" orient="auto" markerUnits="userSpaceOnUse" stroke-dasharray="0,0"><path id="SvgjsPath1569" d="M0,0 L14,5 L0,10 L0,0" fill="#323232" stroke="#323232" stroke-width="1"></path></marker></defs><g id="SvgjsG1290" transform="translate(55,29)"><path id="SvgjsPath1291" d="M 0 0L 120 0L 120 40L 0 40Z" stroke="none" fill="none"></path><g id="SvgjsG1292"><text id="SvgjsText1293" font-family="微软雅黑" text-anchor="middle" font-size="16px" width="120px" fill="#323232" font-weight="700" align="middle" lineHeight="125%" anchor="middle" family="微软雅黑" size="16px" weight="700" font-style="" opacity="1" y="6" transform="rotate(0)"><tspan id="SvgjsTspan1294" dy="20" x="60"><tspan id="SvgjsTspan1295" style="text-decoration:;">TCP Client</tspan></tspan></text></g></g><g id="SvgjsG1296" transform="translate(312,29)"><path id="SvgjsPath1297" d="M 0 0L 120 0L 120 40L 0 40Z" stroke="none" fill="none"></path><g id="SvgjsG1298"><text id="SvgjsText1299" font-family="微软雅黑" text-anchor="middle" font-size="16px" width="120px" fill="#323232" font-weight="700" align="middle" lineHeight="125%" anchor="middle" family="微软雅黑" size="16px" weight="700" font-style="" opacity="1" y="6" transform="rotate(0)"><tspan id="SvgjsTspan1300" dy="20" x="60"><tspan id="SvgjsTspan1301" style="text-decoration:;">TCP Server</tspan></tspan></text></g></g><g id="SvgjsG1302" transform="translate(63,75)"><path id="SvgjsPath1303" d="M 0 0L 99 0L 99 44L 0 44Z" stroke="rgba(144,165,182,1)" stroke-width="2" fill-opacity="1" fill="#d8e8ff"></path><g id="SvgjsG1304"><text id="SvgjsText1305" font-family="微软雅黑" text-anchor="middle" font-size="16px" width="79px" fill="#323232" font-weight="400" align="middle" lineHeight="125%" anchor="middle" family="微软雅黑" size="16px" weight="400" font-style="" opacity="1" y="8" transform="rotate(0)"><tspan id="SvgjsTspan1306" dy="20" x="49.5"><tspan id="SvgjsTspan1307" style="text-decoration:;">socket()</tspan></tspan></text></g></g><g id="SvgjsG1308" transform="translate(320,75)"><path id="SvgjsPath1309" d="M 0 0L 99 0L 99 44L 0 44Z" stroke="rgba(213,201,142,1)" stroke-width="2" fill-opacity="1" fill="#fff2c7"></path><g id="SvgjsG1310"><text id="SvgjsText1311" font-family="微软雅黑" text-anchor="middle" font-size="16px" width="79px" fill="#323232" font-weight="400" align="middle" lineHeight="125%" anchor="middle" family="微软雅黑" size="16px" weight="400" font-style="" opacity="1" y="8" transform="rotate(0)"><tspan id="SvgjsTspan1312" dy="20" x="49.5"><tspan id="SvgjsTspan1313" style="text-decoration:;">socket()</tspan></tspan></text></g></g><g id="SvgjsG1314" transform="translate(320,150)"><path id="SvgjsPath1315" d="M 0 0L 99 0L 99 44L 0 44Z" stroke="rgba(213,201,142,1)" stroke-width="2" fill-opacity="1" fill="#fff2c7"></path><g id="SvgjsG1316"><text id="SvgjsText1317" font-family="微软雅黑" text-anchor="middle" font-size="16px" width="79px" fill="#323232" font-weight="400" align="middle" lineHeight="125%" anchor="middle" family="微软雅黑" size="16px" weight="400" font-style="" opacity="1" y="8" transform="rotate(0)"><tspan id="SvgjsTspan1318" dy="20" x="49.5"><tspan id="SvgjsTspan1319" style="text-decoration:;">bind()</tspan></tspan></text></g></g><g id="SvgjsG1320" transform="translate(320,225)"><path id="SvgjsPath1321" d="M 0 0L 99 0L 99 44L 0 44Z" stroke="rgba(213,201,142,1)" stroke-width="2" fill-opacity="1" fill="#fff2c7"></path><g id="SvgjsG1322"><text id="SvgjsText1323" font-family="微软雅黑" text-anchor="middle" font-size="16px" width="79px" fill="#323232" font-weight="400" align="middle" lineHeight="125%" anchor="middle" family="微软雅黑" size="16px" weight="400" font-style="" opacity="1" y="8" transform="rotate(0)"><tspan id="SvgjsTspan1324" dy="20" x="49.5"><tspan id="SvgjsTspan1325" style="text-decoration:;">listen()</tspan></tspan></text></g></g><g id="SvgjsG1326" transform="translate(320,300)"><path id="SvgjsPath1327" d="M 0 0L 99 0L 99 44L 0 44Z" stroke="rgba(213,201,142,1)" stroke-width="2" fill-opacity="1" fill="#fff2c7"></path><g id="SvgjsG1328"><text id="SvgjsText1329" font-family="微软雅黑" text-anchor="middle" font-size="16px" width="79px" fill="#323232" font-weight="400" align="middle" lineHeight="125%" anchor="middle" family="微软雅黑" size="16px" weight="400" font-style="" opacity="1" y="8" transform="rotate(0)"><tspan id="SvgjsTspan1330" dy="20" x="49.5"><tspan id="SvgjsTspan1331" style="text-decoration:;">accept()</tspan></tspan></text></g></g><g id="SvgjsG1332" transform="translate(391,395)"><path id="SvgjsPath1333" d="M 0 0L 69 0L 69 44L 0 44Z" stroke="rgba(213,201,142,1)" stroke-width="2" fill-opacity="1" fill="#fff2c7"></path><g id="SvgjsG1334"><text id="SvgjsText1335" font-family="微软雅黑" text-anchor="middle" font-size="16px" width="49px" fill="#323232" font-weight="400" align="middle" lineHeight="125%" anchor="middle" family="微软雅黑" size="16px" weight="400" font-style="" opacity="1" y="8" transform="rotate(0)"><tspan id="SvgjsTspan1336" dy="20" x="34.5"><tspan id="SvgjsTspan1337" style="text-decoration:;">read()</tspan></tspan></text></g></g><g id="SvgjsG1338" transform="translate(282,395)"><path id="SvgjsPath1339" d="M 0 0L 69 0L 69 44L 0 44Z" stroke="rgba(213,201,142,1)" stroke-width="2" fill-opacity="1" fill="#fff2c7"></path><g id="SvgjsG1340"><text id="SvgjsText1341" font-family="微软雅黑" text-anchor="middle" font-size="16px" width="49px" fill="#323232" font-weight="400" align="middle" lineHeight="125%" anchor="middle" family="微软雅黑" size="16px" weight="400" font-style="" opacity="1" y="8" transform="rotate(0)"><tspan id="SvgjsTspan1342" dy="20" x="34.5"><tspan id="SvgjsTspan1343" style="text-decoration:;">write()</tspan></tspan></text></g></g><g id="SvgjsG1344"><path id="SvgjsPath1345" d="M369.5 120L369.5 134.5L369.5 134.5L369.5 146.4" stroke="#323232" stroke-width="2" fill="none" marker-end="url(#SvgjsMarker1346)"></path></g><g id="SvgjsG1348"><path id="SvgjsPath1349" d="M369.5 195L369.5 209.5L369.5 209.5L369.5 221.39999999999998" stroke="#323232" stroke-width="2" fill="none" marker-end="url(#SvgjsMarker1350)"></path></g><g id="SvgjsG1352"><path id="SvgjsPath1353" d="M369.5 270L369.5 284.5L369.5 284.5L369.5 296.4" stroke="#323232" stroke-width="2" fill="none" marker-end="url(#SvgjsMarker1354)"></path></g><g id="SvgjsG1356" transform="translate(63,300)"><path id="SvgjsPath1357" d="M 0 0L 99 0L 99 44L 0 44Z" stroke="rgba(144,165,182,1)" stroke-width="2" fill-opacity="1" fill="#d8e8ff"></path><g id="SvgjsG1358"><text id="SvgjsText1359" font-family="微软雅黑" text-anchor="middle" font-size="16px" width="79px" fill="#323232" font-weight="400" align="middle" lineHeight="125%" anchor="middle" family="微软雅黑" size="16px" weight="400" font-style="" opacity="1" y="8" transform="rotate(0)"><tspan id="SvgjsTspan1360" dy="20" x="49.5"><tspan id="SvgjsTspan1361" style="text-decoration:;">connect()</tspan></tspan></text></g></g><g id="SvgjsG1362"><path id="SvgjsPath1363" d="M112.5 120L112.5 209.5L112.5 209.5L112.5 296.4" stroke="#323232" stroke-width="2" fill="none" marker-end="url(#SvgjsMarker1364)"></path></g><g id="SvgjsG1366" transform="translate(25,395)"><path id="SvgjsPath1367" d="M 0 0L 69 0L 69 44L 0 44Z" stroke="rgba(144,165,182,1)" stroke-width="2" fill-opacity="1" fill="#d8e8ff"></path><g id="SvgjsG1368"><text id="SvgjsText1369" font-family="微软雅黑" text-anchor="middle" font-size="16px" width="49px" fill="#323232" font-weight="400" align="middle" lineHeight="125%" anchor="middle" family="微软雅黑" size="16px" weight="400" font-style="" opacity="1" y="8" transform="rotate(0)"><tspan id="SvgjsTspan1370" dy="20" x="34.5"><tspan id="SvgjsTspan1371" style="text-decoration:;">write()</tspan></tspan></text></g></g><g id="SvgjsG1372" transform="translate(130.75,395)"><path id="SvgjsPath1373" d="M 0 0L 69.25 0L 69.25 44L 0 44Z" stroke="rgba(144,165,182,1)" stroke-width="2" fill-opacity="1" fill="#d8e8ff"></path><g id="SvgjsG1374"><text id="SvgjsText1375" font-family="微软雅黑" text-anchor="middle" font-size="16px" width="50px" fill="#323232" font-weight="400" align="middle" lineHeight="125%" anchor="middle" family="微软雅黑" size="16px" weight="400" font-style="" opacity="1" y="8" transform="rotate(0)"><tspan id="SvgjsTspan1376" dy="20" x="35"><tspan id="SvgjsTspan1377" style="text-decoration:;">read()</tspan></tspan></text></g></g><g id="SvgjsG1378"><path id="SvgjsPath1379" d="M112.5 345L112.5 369.5L59.5 369.5L59.5 391.4" stroke="#323232" stroke-width="2" fill="none" marker-end="url(#SvgjsMarker1380)"></path></g><g id="SvgjsG1382"><path id="SvgjsPath1383" d="M163 322L241 322L241 322L316.4 322" stroke="#323232" stroke-width="2" fill="none" marker-end="url(#SvgjsMarker1384)"></path></g><g id="SvgjsG1386" transform="translate(580,29)"><path id="SvgjsPath1387" d="M 0 0L 120 0L 120 40L 0 40Z" stroke="none" fill="none"></path><g id="SvgjsG1388"><text id="SvgjsText1389" font-family="微软雅黑" text-anchor="middle" font-size="16px" width="120px" fill="#323232" font-weight="700" align="middle" lineHeight="125%" anchor="middle" family="微软雅黑" size="16px" weight="700" font-style="" opacity="1" y="6" transform="rotate(0)"><tspan id="SvgjsTspan1390" dy="20" x="60"><tspan id="SvgjsTspan1391" style="text-decoration:;">UDP Client</tspan></tspan></text></g></g><g id="SvgjsG1392" transform="translate(777,29)"><path id="SvgjsPath1393" d="M 0 0L 120 0L 120 40L 0 40Z" stroke="none" fill="none"></path><g id="SvgjsG1394"><text id="SvgjsText1395" font-family="微软雅黑" text-anchor="middle" font-size="16px" width="120px" fill="#323232" font-weight="700" align="middle" lineHeight="125%" anchor="middle" family="微软雅黑" size="16px" weight="700" font-style="" opacity="1" y="6" transform="rotate(0)"><tspan id="SvgjsTspan1396" dy="20" x="60"><tspan id="SvgjsTspan1397" style="text-decoration:;">UDP Server</tspan></tspan></text></g></g><g id="SvgjsG1398" transform="translate(591,75)"><path id="SvgjsPath1399" d="M 0 0L 99 0L 99 44L 0 44Z" stroke="rgba(144,165,182,1)" stroke-width="2" fill-opacity="1" fill="#d8e8ff"></path><g id="SvgjsG1400"><text id="SvgjsText1401" font-family="微软雅黑" text-anchor="middle" font-size="16px" width="79px" fill="#323232" font-weight="400" align="middle" lineHeight="125%" anchor="middle" family="微软雅黑" size="16px" weight="400" font-style="" opacity="1" y="8" transform="rotate(0)"><tspan id="SvgjsTspan1402" dy="20" x="49.5"><tspan id="SvgjsTspan1403" style="text-decoration:;">socket()</tspan></tspan></text></g></g><g id="SvgjsG1404" transform="translate(788,75)"><path id="SvgjsPath1405" d="M 0 0L 99 0L 99 44L 0 44Z" stroke="rgba(213,201,142,1)" stroke-width="2" fill-opacity="1" fill="#fff2c7"></path><g id="SvgjsG1406"><text id="SvgjsText1407" font-family="微软雅黑" text-anchor="middle" font-size="16px" width="79px" fill="#323232" font-weight="400" align="middle" lineHeight="125%" anchor="middle" family="微软雅黑" size="16px" weight="400" font-style="" opacity="1" y="8" transform="rotate(0)"><tspan id="SvgjsTspan1408" dy="20" x="49.5"><tspan id="SvgjsTspan1409" style="text-decoration:;">socket()</tspan></tspan></text></g></g><g id="SvgjsG1410" transform="translate(788,150)"><path id="SvgjsPath1411" d="M 0 0L 99 0L 99 44L 0 44Z" stroke="rgba(213,201,142,1)" stroke-width="2" fill-opacity="1" fill="#fff2c7"></path><g id="SvgjsG1412"><text id="SvgjsText1413" font-family="微软雅黑" text-anchor="middle" font-size="16px" width="79px" fill="#323232" font-weight="400" align="middle" lineHeight="125%" anchor="middle" family="微软雅黑" size="16px" weight="400" font-style="" opacity="1" y="8" transform="rotate(0)"><tspan id="SvgjsTspan1414" dy="20" x="49.5"><tspan id="SvgjsTspan1415" style="text-decoration:;">bind()</tspan></tspan></text></g></g><g id="SvgjsG1416" transform="translate(788,225)"><path id="SvgjsPath1417" d="M 0 0L 99 0L 99 44L 0 44Z" stroke="rgba(213,201,142,1)" stroke-width="2" fill-opacity="1" fill="#fff2c7"></path><g id="SvgjsG1418"><text id="SvgjsText1419" font-family="微软雅黑" text-anchor="middle" font-size="16px" width="79px" fill="#323232" font-weight="400" align="middle" lineHeight="125%" anchor="middle" family="微软雅黑" size="16px" weight="400" font-style="" opacity="1" y="8" transform="rotate(0)"><tspan id="SvgjsTspan1420" dy="20" x="49.5"><tspan id="SvgjsTspan1421" style="text-decoration:;">recvfrom()</tspan></tspan></text></g></g><g id="SvgjsG1422" transform="translate(788,300)"><path id="SvgjsPath1423" d="M 0 0L 99 0L 99 44L 0 44Z" stroke="rgba(213,201,142,1)" stroke-width="2" fill-opacity="1" fill="#fff2c7"></path><g id="SvgjsG1424"><text id="SvgjsText1425" font-family="微软雅黑" text-anchor="middle" font-size="16px" width="79px" fill="#323232" font-weight="400" align="middle" lineHeight="125%" anchor="middle" family="微软雅黑" size="16px" weight="400" font-style="" opacity="1" y="8" transform="rotate(0)"><tspan id="SvgjsTspan1426" dy="20" x="49.5"><tspan id="SvgjsTspan1427" style="text-decoration:;">sendto()</tspan></tspan></text></g></g><g id="SvgjsG1428" transform="translate(788,375)"><path id="SvgjsPath1429" d="M 0 0L 99 0L 99 44L 0 44Z" stroke="rgba(213,201,142,1)" stroke-width="2" fill-opacity="1" fill="#fff2c7"></path><g id="SvgjsG1430"><text id="SvgjsText1431" font-family="微软雅黑" text-anchor="middle" font-size="16px" width="79px" fill="#323232" font-weight="400" align="middle" lineHeight="125%" anchor="middle" family="微软雅黑" size="16px" weight="400" font-style="" opacity="1" y="8" transform="rotate(0)"><tspan id="SvgjsTspan1432" dy="20" x="49.5"><tspan id="SvgjsTspan1433" style="text-decoration:;">close()</tspan></tspan></text></g></g><g id="SvgjsG1434"><path id="SvgjsPath1435" d="M837.5 120L837.5 134.5L837.5 134.5L837.5 146.4" stroke="#323232" stroke-width="2" fill="none" marker-end="url(#SvgjsMarker1436)"></path></g><g id="SvgjsG1438"><path id="SvgjsPath1439" d="M837.5 270L837.5 284.5L837.5 284.5L837.5 296.4" stroke="#323232" stroke-width="2" fill="none" marker-end="url(#SvgjsMarker1440)"></path></g><g id="SvgjsG1442"><path id="SvgjsPath1443" d="M837.5 345L837.5 359.5L837.5 359.5L837.5 371.4" stroke="#323232" stroke-width="2" fill="none" marker-end="url(#SvgjsMarker1444)"></path></g><g id="SvgjsG1446" transform="translate(591,225)"><path id="SvgjsPath1447" d="M 0 0L 99 0L 99 44L 0 44Z" stroke="rgba(144,165,182,1)" stroke-width="2" fill-opacity="1" fill="#d8e8ff"></path><g id="SvgjsG1448"><text id="SvgjsText1449" font-family="微软雅黑" text-anchor="middle" font-size="16px" width="79px" fill="#323232" font-weight="400" align="middle" lineHeight="125%" anchor="middle" family="微软雅黑" size="16px" weight="400" font-style="" opacity="1" y="8" transform="rotate(0)"><tspan id="SvgjsTspan1450" dy="20" x="49.5"><tspan id="SvgjsTspan1451" style="text-decoration:;">sendto()</tspan></tspan></text></g></g><g id="SvgjsG1452"><path id="SvgjsPath1453" d="M640.5 120L640.5 172L640.5 172L640.5 221.39999999999998" stroke="#323232" stroke-width="2" fill="none" marker-end="url(#SvgjsMarker1454)"></path></g><g id="SvgjsG1456" transform="translate(591,300)"><path id="SvgjsPath1457" d="M 0 0L 99 0L 99 44L 0 44Z" stroke="rgba(144,165,182,1)" stroke-width="2" fill-opacity="1" fill="#d8e8ff"></path><g id="SvgjsG1458"><text id="SvgjsText1459" font-family="微软雅黑" text-anchor="middle" font-size="16px" width="79px" fill="#323232" font-weight="400" align="middle" lineHeight="125%" anchor="middle" family="微软雅黑" size="16px" weight="400" font-style="" opacity="1" y="8" transform="rotate(0)"><tspan id="SvgjsTspan1460" dy="20" x="49.5"><tspan id="SvgjsTspan1461" style="text-decoration:;">recvfrom()</tspan></tspan></text></g></g><g id="SvgjsG1462" transform="translate(591,375)"><path id="SvgjsPath1463" d="M 0 0L 99 0L 99 44L 0 44Z" stroke="rgba(144,165,182,1)" stroke-width="2" fill-opacity="1" fill="#d8e8ff"></path><g id="SvgjsG1464"><text id="SvgjsText1465" font-family="微软雅黑" text-anchor="middle" font-size="16px" width="79px" fill="#323232" font-weight="400" align="middle" lineHeight="125%" anchor="middle" family="微软雅黑" size="16px" weight="400" font-style="" opacity="1" y="8" transform="rotate(0)"><tspan id="SvgjsTspan1466" dy="20" x="49.5"><tspan id="SvgjsTspan1467" style="text-decoration:;">close()</tspan></tspan></text></g></g><g id="SvgjsG1468"><path id="SvgjsPath1469" d="M640.5 270L640.5 284.5L640.5 284.5L640.5 296.4" stroke="#323232" stroke-width="2" fill="none" marker-end="url(#SvgjsMarker1470)"></path></g><g id="SvgjsG1472"><path id="SvgjsPath1473" d="M640.5 345L640.5 359.5L640.5 359.5L640.5 371.4" stroke="#323232" stroke-width="2" fill="none" marker-end="url(#SvgjsMarker1474)"></path></g><g id="SvgjsG1476"><path id="SvgjsPath1477" d="M837.5 195L837.5 209.5L837.5 209.5L837.5 221.39999999999998" stroke="#323232" stroke-width="2" fill="none" marker-end="url(#SvgjsMarker1478)"></path></g><g id="SvgjsG1480"><path id="SvgjsPath1481" d="M787 322L739 322L739 322L693.6 322" stroke="#323232" stroke-width="2" fill="none" marker-end="url(#SvgjsMarker1482)"></path></g><g id="SvgjsG1484"><path id="SvgjsPath1485" d="M590 322L561 322L561 247L587.4 247" stroke="#323232" stroke-width="2" fill="none" marker-end="url(#SvgjsMarker1486)"></path></g><g id="SvgjsG1488"><path id="SvgjsPath1489" d="M691 247L739 247L739 247L784.4 247" stroke="#323232" stroke-width="2" fill="none" marker-end="url(#SvgjsMarker1490)"></path></g><g id="SvgjsG1492" transform="translate(677,207)"><path id="SvgjsPath1493" d="M 0 0L 120 0L 120 40L 0 40Z" stroke="none" fill="none"></path><g id="SvgjsG1494"><text id="SvgjsText1495" font-family="微软雅黑" text-anchor="middle" font-size="13px" width="120px" fill="#323232" font-weight="400" align="middle" lineHeight="125%" anchor="middle" family="微软雅黑" size="13px" weight="400" font-style="" opacity="1" y="9.375" transform="rotate(0)"><tspan id="SvgjsTspan1496" dy="16" x="60"><tspan id="SvgjsTspan1497" style="text-decoration:;">data request</tspan></tspan></text></g></g><g id="SvgjsG1498" transform="translate(681,281)"><path id="SvgjsPath1499" d="M 0 0L 120 0L 120 40L 0 40Z" stroke="none" fill="none"></path><g id="SvgjsG1500"><text id="SvgjsText1501" font-family="微软雅黑" text-anchor="middle" font-size="13px" width="120px" fill="#323232" font-weight="400" align="middle" lineHeight="125%" anchor="middle" family="微软雅黑" size="13px" weight="400" font-style="" opacity="1" y="9.375" transform="rotate(0)"><tspan id="SvgjsTspan1502" dy="16" x="60"><tspan id="SvgjsTspan1503" style="text-decoration:;">data reply</tspan></tspan></text></g></g><g id="SvgjsG1504"><path id="SvgjsPath1505" d="M888 322L917 322L917 247L890.6 247" stroke="#323232" stroke-width="2" fill="none" marker-end="url(#SvgjsMarker1506)"></path></g><g id="SvgjsG1508"><path id="SvgjsPath1509" d="M112.5 345L112.5 369.5L165.375 369.5L165.375 391.4" stroke="#323232" stroke-width="2" fill="none" marker-end="url(#SvgjsMarker1510)"></path></g><g id="SvgjsG1512"><path id="SvgjsPath1513" d="M97.6 417L112.375 417L112.375 417L127.15 417" stroke="#323232" stroke-width="2" fill="none" marker-start="url(#SvgjsMarker1514)" marker-end="url(#SvgjsMarker1516)"></path></g><g id="SvgjsG1518"><path id="SvgjsPath1519" d="M369.5 345L369.5 369.5L316.5 369.5L316.5 391.4" stroke="#323232" stroke-width="2" fill="none" marker-end="url(#SvgjsMarker1520)"></path></g><g id="SvgjsG1522"><path id="SvgjsPath1523" d="M369.5 345L369.5 369.5L425.5 369.5L425.5 391.4" stroke="#323232" stroke-width="2" fill="none" marker-end="url(#SvgjsMarker1524)"></path></g><g id="SvgjsG1526"><path id="SvgjsPath1527" d="M354.6 417L371 417L371 417L387.4 417" stroke="#323232" stroke-width="2" fill="none" marker-start="url(#SvgjsMarker1528)" marker-end="url(#SvgjsMarker1530)"></path></g><g id="SvgjsG1532" transform="translate(322.5,481)"><path id="SvgjsPath1533" d="M 0 0L 99 0L 99 44L 0 44Z" stroke="rgba(213,201,142,1)" stroke-width="2" fill-opacity="1" fill="#fff2c7"></path><g id="SvgjsG1534"><text id="SvgjsText1535" font-family="微软雅黑" text-anchor="middle" font-size="16px" width="79px" fill="#323232" font-weight="400" align="middle" lineHeight="125%" anchor="middle" family="微软雅黑" size="16px" weight="400" font-style="" opacity="1" y="8" transform="rotate(0)"><tspan id="SvgjsTspan1536" dy="20" x="49.5"><tspan id="SvgjsTspan1537" style="text-decoration:;">close()</tspan></tspan></text></g></g><g id="SvgjsG1538" transform="translate(63,481)"><path id="SvgjsPath1539" d="M 0 0L 99 0L 99 44L 0 44Z" stroke="rgba(144,165,182,1)" stroke-width="2" fill-opacity="1" fill="#d8e8ff"></path><g id="SvgjsG1540"><text id="SvgjsText1541" font-family="微软雅黑" text-anchor="middle" font-size="16px" width="79px" fill="#323232" font-weight="400" align="middle" lineHeight="125%" anchor="middle" family="微软雅黑" size="16px" weight="400" font-style="" opacity="1" y="8" transform="rotate(0)"><tspan id="SvgjsTspan1542" dy="20" x="49.5"><tspan id="SvgjsTspan1543" style="text-decoration:;">close()</tspan></tspan></text></g></g><g id="SvgjsG1544"><path id="SvgjsPath1545" d="M59.5 440L59.5 460L112.5 460L112.5 477.4" stroke="#323232" stroke-width="2" fill="none" marker-end="url(#SvgjsMarker1546)"></path></g><g id="SvgjsG1548"><path id="SvgjsPath1549" d="M165.375 440L165.375 460L112.5 460L112.5 477.4" stroke="#323232" stroke-width="2" fill="none" marker-end="url(#SvgjsMarker1550)"></path></g><g id="SvgjsG1552"><path id="SvgjsPath1553" d="M316.5 440L316.5 460L372 460L372 477.4" stroke="#323232" stroke-width="2" fill="none" marker-end="url(#SvgjsMarker1554)"></path></g><g id="SvgjsG1556"><path id="SvgjsPath1557" d="M425.5 440L425.5 460L372 460L372 477.4" stroke="#323232" stroke-width="2" fill="none" marker-end="url(#SvgjsMarker1558)"></path></g><g id="SvgjsG1560" transform="translate(213.75,403.5)"><path id="SvgjsPath1561" d="M 0 13.5L 13.5 0L 13.5 8.91L 41 8.91L 41 0L 54.5 13.5L 41 27L 41 18.09L 13.5 18.09L 13.5 27L 0 13.5Z" stroke="rgba(50,50,50,1)" stroke-width="2" fill-opacity="1" fill="#ffffff"></path><g id="SvgjsG1562"><text id="SvgjsText1563" font-family="微软雅黑" text-anchor="middle" font-size="13px" width="55px" fill="#323232" font-weight="400" align="middle" lineHeight="125%" anchor="middle" family="微软雅黑" size="13px" weight="400" font-style="" opacity="1" y="2.875000000000001" transform="rotate(0)"></text></g></g><g id="SvgjsG1564"><path id="SvgjsPath1565" d="M165.60000000000002 503L242.25 503L242.25 503L318.9 503" stroke-dasharray="10,5,3,5" stroke="#323232" stroke-width="2" fill="none" marker-start="url(#SvgjsMarker1566)" marker-end="url(#SvgjsMarker1568)"></path></g><g id="SvgjsG1570"><path id="SvgjsPath1571" d="M508 25L508 278L508 278L508 531" stroke="#eb9b55" stroke-width="2" fill="none"></path></g></svg>